<svg xmlns="http://www.w3.org/2000/svg" version="1.1" xmlns:xlink="http://www.w3.org/1999/xlink" xmlns:svgjs="http://svgjs.dev/svgjs" width="1500" height="1500" viewBox="0 0 1500 1500"><rect width="1500" height="1500" fill="#000000"></rect><g transform="matrix(0.6666666666666666,0,0,0.6666666666666666,249.3939393939396,583.6705587937013)"><svg viewBox="0 0 396 132" data-background-color="#ffffff" preserveAspectRatio="xMidYMid meet" height="500" width="1500" xmlns="http://www.w3.org/2000/svg" xmlns:xlink="http://www.w3.org/1999/xlink"><g id="tight-bounds" transform="matrix(1,0,0,1,0.23999999999992383,-0.1335412823056572)"><svg viewBox="0 0 395.5199999999999 132.2670024134322" height="132.2670024134322" width="395.5199999999999"><g><svg viewBox="0 0 395.5199999999999 132.2670024134322" height="132.2670024134322" width="395.5199999999999"><g><svg viewBox="0 0 663.4548041621264 221.86786555247568" height="132.2670024134322" width="395.5199999999999"><g transform="matrix(1,0,0,1,267.9348041621264,40.50703483724487)"><svg viewBox="0 0 395.52 140.85379587798593" height="140.85379587798593" width="395.52"><g id="textblocktransform"><svg viewBox="0 0 395.52 140.85379587798593" height="140.85379587798593" width="395.52" id="textblock"><g><svg viewBox="0 0 395.52 97.56802599512591" height="97.56802599512591" width="395.52"><g transform="matrix(1,0,0,1,0,0)"><svg width="395.52" viewBox="0.75 -45.15 184.63 45.55" height="97.56802599512591" data-palette-color="#171207"><path d="M9.1 0L0.75 0 4.9-42.95 19.45-42.95 23.55 0 15.4 0 14.8-6.95 9.6-6.95 9.1 0ZM11.85-35.65L10.25-13.8 14.15-13.8 12.25-35.65 11.85-35.65ZM26 0L26-36.6 34.75-36.6 34.75-32.55Q35.4-34.7 37.02-35.88 38.65-37.05 41.05-37.05L41.05-37.05 41.05-29.75Q39.2-29.75 36.97-29.23 34.75-28.7 34.75-28L34.75-28 34.75 0 26 0ZM54.2 0.4Q48.2 0.4 45.55-2.65 42.9-5.7 42.9-12L42.9-12 42.9-23.3Q42.9-28.05 43.92-31.03 44.95-34 47.37-35.5 49.8-37 54.09-37L54.09-37Q58.8-37 61.75-34.55 64.69-32.1 64.69-27.7L64.69-27.7 64.69-22.1 55.8-22.1 55.8-27.25Q55.8-28.7 55.4-29.48 55-30.25 53.84-30.25L53.84-30.25Q51.7-30.25 51.7-27.2L51.7-27.2 51.7-9.45Q51.7-8.2 52.22-7.33 52.75-6.45 53.8-6.45L53.8-6.45Q54.84-6.45 55.37-7.3 55.9-8.15 55.84-9.5L55.84-9.5 55.8-15.65 64.69-15.65 64.69-9.25Q64.69-4.75 61.77-2.18 58.84 0.4 54.2 0.4L54.2 0.4ZM67.74 0L67.74-43.2 76.74-43.2 76.74-33Q78.14-37 82.09-37L82.09-37Q85.79-37 87.69-34.65 89.59-32.3 89.59-28.2L89.59-28.2 89.59 0 80.84 0 80.84-27.65Q80.84-28.85 80.29-29.6 79.74-30.35 78.69-30.35L78.69-30.35Q77.79-30.35 77.27-29.58 76.74-28.8 76.74-27.7L76.74-27.7 76.74 0 67.74 0ZM101.69-39.05L92.94-39.05 92.94-45.15 101.69-45.15 101.69-39.05ZM101.69 0L92.94 0 92.94-36.6 101.69-36.6 101.69 0ZM112.69 0.4Q109.24 0.4 107.94-1.05 106.64-2.5 106.64-5.7L106.64-5.7 106.64-28.55 104.19-28.55 104.19-35.2 106.64-35.2 106.64-42.95 115.14-42.95 115.14-35.2 117.64-35.2 117.64-28.55 115.14-28.55 115.14-8Q115.14-7.05 115.29-6.6 115.44-6.15 116.09-6.15L116.09-6.15Q116.59-6.15 117.04-6.2 117.49-6.25 117.64-6.25L117.64-6.25 117.64-0.25Q116.89-0.05 115.46 0.18 114.04 0.4 112.69 0.4L112.69 0.4ZM120.39 0L120.39-36.6 129.14-36.6 129.14-32.55Q129.79-34.7 131.41-35.88 133.04-37.05 135.44-37.05L135.44-37.05 135.44-29.75Q133.59-29.75 131.36-29.23 129.14-28.7 129.14-28L129.14-28 129.14 0 120.39 0ZM147.83 0.4Q142.18 0.4 139.73-2.7 137.28-5.8 137.28-11.95L137.28-11.95 137.28-26.65Q137.28-31.7 140.18-34.35 143.08-37 148.28-37L148.28-37Q158.83-37 158.83-26.65L158.83-26.65 158.83-24Q158.83-20 158.73-17.5L158.73-17.5 146.03-17.5 146.03-10.4Q146.03-8.5 146.43-7.43 146.83-6.35 148.13-6.35L148.13-6.35Q149.13-6.35 149.56-6.95 149.98-7.55 150.06-8.33 150.13-9.1 150.13-10.6L150.13-10.6 150.13-14.15 158.83-14.15 158.83-12.05Q158.83-5.65 156.36-2.63 153.88 0.4 147.83 0.4L147.83 0.4ZM145.98-21.85L150.13-21.85 150.13-26.55Q150.13-30.5 148.18-30.5L148.18-30.5Q145.98-30.5 145.98-26.55L145.98-26.55 145.98-21.85ZM170.63 0L161.98 0 161.98-43.2 170.63-43.2 170.63-24 174.83-36.6 183.88-36.6 178.38-20.7 185.38 0 176.08 0 170.63-17.25 170.63 0Z" opacity="1" transform="matrix(1,0,0,1,0,0)" fill="#ffffff" class="wordmark-text-0" data-fill-palette-color="primary" id="text-0"></path></svg></g></svg></g><g transform="matrix(1,0,0,1,0,120.60149529995125)"><svg viewBox="0 0 395.52 20.25230057803468" height="20.25230057803468" width="395.52"><g transform="matrix(1,0,0,1,0,0)"><svg width="395.52" viewBox="3.25 -38.99 1013.57 51.910000000000004" height="20.25230057803468" data-palette-color="#241c0c"><path d="M11.4-18.19L11.4-1.49 20-1.76Q21.78-1.81 23-2.17 24.22-2.54 25.1-3.21 25.98-3.88 26.64-4.87 27.29-5.86 27.95-7.15L27.95-7.15 28.66-6.86 26.25-0.34 25.85 0 8.11 0Q7.64-1 7.64-2.39L7.64-2.39 7.64-28.34Q7.64-29.96 7.5-30.99 7.35-32.03 6.96-32.65 6.57-33.28 5.87-33.52 5.18-33.76 4.08-33.76L4.08-33.76Q3.91-33.76 3.72-33.76 3.54-33.76 3.34-33.74L3.34-33.74 3.25-34.45Q10.21-35.55 18.58-35.55L18.58-35.55Q22.85-35.55 27.54-35.25L27.54-35.25 27.71-34.84 25.39-28.76 24.61-29Q24.8-29.93 24.9-30.71 25-31.49 25-32.24 25-32.98 24.8-33.64L24.8-33.64Q22.97-33.81 21.2-33.9 19.43-33.98 17.68-33.98L17.68-33.98Q14.48-33.98 11.4-33.69L11.4-33.69 11.4-19.9 24.76-20.63 25-20.36 23.85-18.36Q22.75-18.41 21.63-18.43 20.51-18.46 19.34-18.46L19.34-18.46Q17.43-18.46 15.45-18.38 13.48-18.31 11.4-18.19L11.4-18.19ZM69.38-2.44L69.38-5.54 69.38-16.75Q69.38-18.87 68.93-20.19 68.48-21.51 67.76-22.24 67.04-22.97 66.15-23.23 65.26-23.49 64.38-23.49L64.38-23.49Q62.67-23.49 60.85-22.8 59.03-22.12 57-20.65L57-20.65Q57.39-19.34 57.39-17.65L57.39-17.65 57.39-2.76Q57.39-2.15 57.68-1.76 57.96-1.37 58.41-1.1 58.86-0.83 59.45-0.65 60.03-0.46 60.64-0.29L60.64-0.29 60.45 0.29Q59.01 0 56.78 0L56.78 0Q55.39 0 53.54 0.39L53.54 0.39 53.39 0.15Q53.9-0.54 53.9-2.44L53.9-2.44 53.9-16.75Q53.9-18.85 53.42-20.17 52.93-21.48 52.15-22.23 51.36-22.97 50.39-23.24 49.41-23.51 48.46-23.51L48.46-23.51Q47.36-23.51 46.41-23.28 45.46-23.05 44.54-22.61 43.63-22.17 42.65-21.5 41.67-20.83 40.55-19.95L40.55-19.95 40.55-3.34Q40.55-2.56 40.67-2.09 40.79-1.61 41.18-1.29 41.57-0.98 42.28-0.73 42.99-0.49 44.14-0.2L44.14-0.2 43.94 0.39Q42.53 0.2 41.54 0.1 40.55 0 39.94 0L39.94 0Q38.55 0 36.69 0.39L36.69 0.39 36.55 0.15Q37.03-0.56 37.03-2.44L37.03-2.44 37.03-18.09Q37.03-19.73 36.87-20.83 36.72-21.92 36.31-22.58 35.91-23.24 35.2-23.51 34.49-23.78 33.4-23.78L33.4-23.78Q33.25-23.78 33.08-23.78 32.91-23.78 32.74-23.75L32.74-23.75 32.64-24.19Q36.62-25.39 40.04-25.39L40.04-25.39Q40.55-24.1 40.55-22.61L40.55-22.61 40.55-21.61Q41.87-22.61 42.95-23.33 44.04-24.05 45.08-24.51 46.12-24.98 47.19-25.2 48.26-25.42 49.58-25.42L49.58-25.42Q50.53-25.42 51.52-25.26 52.51-25.1 53.43-24.69 54.34-24.29 55.12-23.63 55.91-22.97 56.44-21.95L56.44-21.95Q57.64-22.83 58.74-23.49 59.84-24.15 60.91-24.58 61.98-25.02 63.08-25.23 64.18-25.44 65.4-25.44L65.4-25.44Q66.75-25.44 68.08-25.09 69.41-24.73 70.48-23.85 71.56-22.97 72.23-21.47 72.9-19.97 72.9-17.65L72.9-17.65 72.9-2.76Q72.9-2.15 73.18-1.76 73.46-1.37 73.91-1.1 74.36-0.83 74.95-0.65 75.53-0.46 76.14-0.29L76.14-0.29 75.95 0.29Q74.51 0 72.29 0L72.29 0Q70.9 0 69.04 0.39L69.04 0.39 68.89 0.15Q69.38-0.56 69.38-2.44L69.38-2.44ZM87.54-36.21L87.54-21.19Q89.69-23.39 91.87-24.39 94.04-25.39 96.65-25.39L96.65-25.39Q98.85-25.39 100.69-24.38 102.53-23.36 103.73-21.7 104.93-20.04 105.59-17.96 106.25-15.87 106.25-13.65L106.25-13.65Q106.25-7.1 102.79-3.31 99.34 0.49 92.79 0.49L92.79 0.49Q90.18 0.49 87.69 0.05L87.69 0.05 87.64 0.05Q85.22 0.05 83.74 0.56L83.74 0.56 83.54 0.15Q83.86-0.32 83.94-0.89 84.03-1.46 84.03-2.95L84.03-2.95 84.03-31.69Q84.03-34.91 83.33-36.13 82.64-37.35 80.44-37.35L80.44-37.35 79.73-37.35 79.63-37.79Q83.66-38.99 87.03-38.99L87.03-38.99Q87.54-37.72 87.54-36.21L87.54-36.21ZM87.54-19.24L87.54-19.24 87.54-2.81Q88.72-2.17 90.66-1.76 92.6-1.34 94.55-1.34L94.55-1.34Q96.45-1.34 97.86-1.87 99.26-2.39 100.12-3.28 100.97-4.17 101.5-5.62 102.02-7.06 102.2-8.64 102.39-10.23 102.39-12.35L102.39-12.35Q102.39-17.92 100.51-20.79 98.63-23.66 95.53-23.66L95.53-23.66Q93.6-23.66 91.51-22.52 89.42-21.39 87.54-19.24ZM129.73-17.65L129.73-2.76Q129.73-2.34 129.91-1.99 130.1-1.64 130.35-1.4 130.61-1.17 131.1-0.95 131.58-0.73 131.95-0.61 132.32-0.49 132.98-0.29L132.98-0.29 132.78 0.29Q131.22 0 129.68 0L129.68 0Q127.75 0 125.87 0.39L125.87 0.39 125.72 0.15Q126.24-0.56 126.24-2.44L126.24-2.44 126.24-4.05Q125.02-1.78 122.44-0.39 119.87 1 117.23 1L117.23 1Q114.42 1 112.7-0.45 110.98-1.9 110.98-4.76L110.98-4.76Q110.98-6.62 111.75-8.07 112.52-9.52 113.8-10.53 115.08-11.55 117.09-12.33 119.11-13.11 121.24-13.6 123.38-14.09 126.24-14.5L126.24-14.5 126.24-16.75Q126.24-23.46 120.94-23.46L120.94-23.46Q119.23-23.46 116.75-22.62 114.27-21.78 112.59-20.41L112.59-20.41 111.59-21.56Q113.71-23.24 116.63-24.34 119.55-25.44 122.09-25.44L122.09-25.44Q123.21-25.44 124.22-25.23 125.24-25.02 126.27-24.48 127.31-23.93 128.06-23.08 128.8-22.24 129.26-20.84 129.73-19.43 129.73-17.65L129.73-17.65ZM118.38-0.85L118.38-0.85Q120.5-0.85 122.82-2.26 125.14-3.66 126.24-5.76L126.24-5.76 126.24-13.21Q119.99-12.3 117.31-10.44 114.64-8.57 114.64-5L114.64-5Q114.64-2.83 115.57-1.84 116.5-0.85 118.38-0.85ZM140.86-2.44L140.86-18.09Q140.86-19.73 140.7-20.83 140.54-21.92 140.14-22.58 139.74-23.24 139.03-23.51 138.32-23.78 136.56-23.75L136.56-23.75 136.46-24.19Q140.44-25.39 143.86-25.39L143.86-25.39Q144.37-24.1 144.37-22.61L144.37-22.61 144.37-19.6 144.47-19.51Q145.5-20.92 146.44-22.02 147.38-23.12 148.35-23.85 149.33-24.58 150.41-24.96 151.48-25.34 152.8-25.34L152.8-25.34Q153.63-25.34 154.63-25.2L154.63-25.2 153.21-19.24 152.31-19.51Q152.31-19.87 152.26-20.51 152.21-21.14 152.13-21.77 152.04-22.39 151.91-22.84 151.77-23.29 151.6-23.29L151.6-23.29Q150.89-23.29 150.17-22.99 149.45-22.68 148.6-22 147.74-21.31 146.72-20.21 145.69-19.12 144.37-17.55L144.37-17.55 144.37-3.34Q144.37-2.56 144.5-2.09 144.62-1.61 145.01-1.29 145.4-0.98 146.11-0.73 146.82-0.49 147.96-0.2L147.96-0.2 147.77 0.39Q146.35 0.2 145.36 0.1 144.37 0 143.76 0L143.76 0Q142.37 0 140.52 0.39L140.52 0.39 140.37 0.15Q140.86-0.56 140.86-2.44L140.86-2.44ZM161.27-2.44L161.27-31.69Q161.27-35.16 160.45-36.34 159.63-37.52 156.97-37.35L156.97-37.35 156.87-37.79Q160.9-38.99 164.27-38.99L164.27-38.99Q164.78-37.72 164.78-36.21L164.78-36.21 164.78-4.39Q164.78-2.47 165.69-1.54 166.59-0.61 168.88-0.2L168.88-0.2 168.69 0.39Q165.88 0 164.17 0L164.17 0Q162.83 0 160.93 0.39L160.93 0.39 160.78 0.15Q161.27-0.56 161.27-2.44L161.27-2.44ZM175.77-1.15L175.77-1.15 166.74-13.04 166.74-13.6 175.77-22.71Q176.45-23.46 175.26-23.85L175.26-23.85Q174.18-24.22 172.18-24.05L172.18-24.05 172.03-24.66Q175.16-25.29 179.28-25.39L179.28-25.39 179.68-24.66 169.52-14.5Q178.99-2.61 180.09-1.82 181.19-1.03 182.82-0.66L182.82-0.66 182.78 0.1Q178.77-0.2 176.72 0.39L176.72 0.39 176.38 0.2Q176.43-0.34 175.77-1.15ZM210.97-25.39L210.97-25.39Q216.58-25.39 219.78-21.95 222.98-18.51 222.98-12.35L222.98-12.35Q222.98-8.79 221.34-5.71 219.71-2.64 216.9-0.82 214.09 1 210.82 1L210.82 1Q205.18 1 202-2.4 198.81-5.81 198.81-12.06L198.81-12.06Q198.81-15.77 200.45-18.84 202.08-21.9 204.88-23.65 207.67-25.39 210.97-25.39ZM210.48-23.71L210.48-23.71Q208.55-23.71 207.14-23.14 205.72-22.58 204.87-21.63 204.01-20.68 203.5-19.21 202.99-17.75 202.8-16.21 202.62-14.67 202.62-12.65L202.62-12.65Q202.62-9.42 203.39-7.02 204.16-4.61 205.45-3.28 206.75-1.95 208.21-1.33 209.67-0.71 211.31-0.71L211.31-0.71Q213.21-0.71 214.64-1.31 216.07-1.9 216.93-2.87 217.78-3.83 218.29-5.31 218.81-6.79 218.99-8.3 219.17-9.81 219.17-11.74L219.17-11.74Q219.17-14.45 218.66-16.58 218.15-18.7 217.3-20.02 216.46-21.34 215.3-22.19 214.14-23.05 212.97-23.38 211.8-23.71 210.48-23.71ZM231.11-2.44L231.11-18.09Q231.11-19.73 230.95-20.83 230.79-21.92 230.39-22.58 229.98-23.24 229.28-23.51 228.57-23.78 227.78-23.78 226.98-23.78 226.81-23.75L226.81-23.75 226.71-24.19Q230.69-25.39 234.11-25.39L234.11-25.39Q234.62-24.1 234.62-22.61L234.62-22.61 234.62-21.9Q236.04-22.85 237.24-23.56 238.43-24.27 239.59-24.76 240.75-25.24 241.97-25.49 243.19-25.73 244.66-25.73L244.66-25.73Q245.98-25.73 247.28-25.39 248.59-25.05 249.63-24.17 250.66-23.29 251.31-21.78 251.96-20.26 251.96-17.94L251.96-17.94 251.96-2.76Q251.96-2.17 252.24-1.78 252.52-1.39 252.97-1.12 253.42-0.85 254.01-0.67 254.59-0.49 255.23-0.29L255.23-0.29 255.01 0.29Q253.64 0 251.37 0L251.37 0Q249.98 0 248.12 0.39L248.12 0.39 247.98 0.15Q248.47-0.56 248.47-2.44L248.47-2.44 248.47-17.04Q248.47-19.09 248.08-20.4 247.69-21.7 247.01-22.45 246.34-23.19 245.45-23.49 244.56-23.78 243.56-23.78L243.56-23.78Q242.34-23.78 241.28-23.56 240.21-23.34 239.15-22.89 238.09-22.44 236.99-21.77 235.89-21.09 234.62-20.19L234.62-20.19 234.62-3.34Q234.62-2.56 234.75-2.09 234.87-1.61 235.26-1.29 235.65-0.98 236.36-0.73 237.06-0.49 238.21-0.2L238.21-0.2 238.02 0.39Q236.6 0.2 235.61 0.1 234.62 0 234.01 0L234.01 0Q232.62 0 230.77 0.39L230.77 0.39 230.62 0.15Q231.11-0.56 231.11-2.44L231.11-2.44ZM291.45-17.65L291.45-2.76Q291.45-2.34 291.64-1.99 291.82-1.64 292.08-1.4 292.33-1.17 292.82-0.95 293.31-0.73 293.68-0.61 294.04-0.49 294.7-0.29L294.7-0.29 294.51 0.29Q292.94 0 291.41 0L291.41 0Q289.48 0 287.6 0.39L287.6 0.39 287.45 0.15Q287.96-0.56 287.96-2.44L287.96-2.44 287.96-4.05Q286.74-1.78 284.17-0.39 281.59 1 278.95 1L278.95 1Q276.15 1 274.43-0.45 272.7-1.9 272.7-4.76L272.7-4.76Q272.7-6.62 273.47-8.07 274.24-9.52 275.52-10.53 276.81-11.55 278.82-12.33 280.83-13.11 282.97-13.6 285.11-14.09 287.96-14.5L287.96-14.5 287.96-16.75Q287.96-23.46 282.67-23.46L282.67-23.46Q280.96-23.46 278.48-22.62 276-21.78 274.32-20.41L274.32-20.41 273.31-21.56Q275.44-23.24 278.36-24.34 281.27-25.44 283.81-25.44L283.81-25.44Q284.94-25.44 285.95-25.23 286.96-25.02 288-24.48 289.04-23.93 289.78-23.08 290.53-22.24 290.99-20.84 291.45-19.43 291.45-17.65L291.45-17.65ZM280.1-0.85L280.1-0.85Q282.23-0.85 284.55-2.26 286.86-3.66 287.96-5.76L287.96-5.76 287.96-13.21Q281.71-12.3 279.04-10.44 276.37-8.57 276.37-5L276.37-5Q276.37-2.83 277.29-1.84 278.22-0.85 280.1-0.85ZM302.58-2.44L302.58-18.09Q302.58-19.73 302.43-20.83 302.27-21.92 301.86-22.58 301.46-23.24 300.75-23.51 300.05-23.78 299.25-23.78 298.46-23.78 298.29-23.75L298.29-23.75 298.19-24.19Q302.17-25.39 305.59-25.39L305.59-25.39Q306.1-24.1 306.1-22.61L306.1-22.61 306.1-21.9Q307.52-22.85 308.71-23.56 309.91-24.27 311.07-24.76 312.23-25.24 313.45-25.49 314.67-25.73 316.13-25.73L316.13-25.73Q317.45-25.73 318.76-25.39 320.07-25.05 321.1-24.17 322.14-23.29 322.79-21.78 323.43-20.26 323.43-17.94L323.43-17.94 323.43-2.76Q323.43-2.17 323.72-1.78 324-1.39 324.45-1.12 324.9-0.85 325.49-0.67 326.07-0.49 326.71-0.29L326.71-0.29 326.49 0.29Q325.12 0 322.85 0L322.85 0Q321.46 0 319.6 0.39L319.6 0.39 319.45 0.15Q319.94-0.56 319.94-2.44L319.94-2.44 319.94-17.04Q319.94-19.09 319.55-20.4 319.16-21.7 318.49-22.45 317.82-23.19 316.93-23.49 316.04-23.78 315.04-23.78L315.04-23.78Q313.82-23.78 312.75-23.56 311.69-23.34 310.63-22.89 309.57-22.44 308.47-21.77 307.37-21.09 306.1-20.19L306.1-20.19 306.1-3.34Q306.1-2.56 306.22-2.09 306.34-1.61 306.74-1.29 307.13-0.98 307.83-0.73 308.54-0.49 309.69-0.2L309.69-0.2 309.49 0.39Q308.08 0.2 307.09 0.1 306.1 0 305.49 0L305.49 0Q304.1 0 302.24 0.39L302.24 0.39 302.1 0.15Q302.58-0.56 302.58-2.44L302.58-2.44ZM362.93-17.65L362.93-2.76Q362.93-2.34 363.11-1.99 363.3-1.64 363.55-1.4 363.81-1.17 364.3-0.95 364.79-0.73 365.15-0.61 365.52-0.49 366.18-0.29L366.18-0.29 365.98 0.29Q364.42 0 362.88 0L362.88 0Q360.95 0 359.07 0.39L359.07 0.39 358.93 0.15Q359.44-0.56 359.44-2.44L359.44-2.44 359.44-4.05Q358.22-1.78 355.64-0.39 353.07 1 350.43 1L350.43 1Q347.62 1 345.9-0.45 344.18-1.9 344.18-4.76L344.18-4.76Q344.18-6.62 344.95-8.07 345.72-9.52 347-10.53 348.28-11.55 350.3-12.33 352.31-13.11 354.45-13.6 356.58-14.09 359.44-14.5L359.44-14.5 359.44-16.75Q359.44-23.46 354.14-23.46L354.14-23.46Q352.43-23.46 349.96-22.62 347.48-21.78 345.79-20.41L345.79-20.41 344.79-21.56Q346.92-23.24 349.83-24.34 352.75-25.44 355.29-25.44L355.29-25.44Q356.41-25.44 357.43-25.23 358.44-25.02 359.48-24.48 360.51-23.93 361.26-23.08 362-22.24 362.47-20.84 362.93-19.43 362.93-17.65L362.93-17.65ZM351.58-0.85L351.58-0.85Q353.7-0.85 356.02-2.26 358.34-3.66 359.44-5.76L359.44-5.76 359.44-13.21Q353.19-12.3 350.52-10.44 347.84-8.57 347.84-5L347.84-5Q347.84-2.83 348.77-1.84 349.7-0.85 351.58-0.85ZM374.06-2.44L374.06-18.09Q374.06-19.73 373.9-20.83 373.74-21.92 373.34-22.58 372.94-23.24 372.23-23.51 371.52-23.78 369.76-23.75L369.76-23.75 369.67-24.19Q373.65-25.39 377.06-25.39L377.06-25.39Q377.58-24.1 377.58-22.61L377.58-22.61 377.58-19.6 377.67-19.51Q378.7-20.92 379.64-22.02 380.58-23.12 381.56-23.85 382.53-24.58 383.61-24.96 384.68-25.34 386-25.34L386-25.34Q386.83-25.34 387.83-25.2L387.83-25.2 386.42-19.24 385.51-19.51Q385.51-19.87 385.46-20.51 385.41-21.14 385.33-21.77 385.24-22.39 385.11-22.84 384.97-23.29 384.8-23.29L384.8-23.29Q384.1-23.29 383.38-22.99 382.66-22.68 381.8-22 380.95-21.31 379.92-20.21 378.9-19.12 377.58-17.55L377.58-17.55 377.58-3.34Q377.58-2.56 377.7-2.09 377.82-1.61 378.21-1.29 378.6-0.98 379.31-0.73 380.02-0.49 381.17-0.2L381.17-0.2 380.97 0.39Q379.55 0.2 378.57 0.1 377.58 0 376.97 0L376.97 0Q375.58 0 373.72 0.39L373.72 0.39 373.57 0.15Q374.06-0.56 374.06-2.44L374.06-2.44ZM402.87 1L402.87 1Q400.3 1 398.11-0.02 395.91-1.05 394.44-2.77 392.98-4.49 392.15-6.7 391.32-8.91 391.32-11.3L391.32-11.3Q391.32-14.72 392.32-17.43 393.32-20.14 395.1-21.86 396.89-23.58 399.27-24.49 401.65-25.39 404.48-25.39L404.48-25.39Q407.6-25.39 410.92-24.24L410.92-24.24 409.34-18.26 408.43-18.51Q408.7-21.07 408.29-22.9L408.29-22.9Q405.55-23.71 403.33-23.71L403.33-23.71Q399.03-23.71 397.08-20.91 395.13-18.12 395.13-12.65L395.13-12.65Q395.13-7.54 397.51-4.15 399.89-0.76 403.53-0.76L403.53-0.76Q408.04-0.76 410.88-3.59L410.88-3.59 411.88-2.54Q410.05-0.63 407.88 0.18 405.72 1 402.87 1ZM435.97-2.44L435.97-17.04Q435.97-19.09 435.58-20.4 435.19-21.7 434.52-22.45 433.85-23.19 432.96-23.49 432.06-23.78 431.06-23.78L431.06-23.78Q429.84-23.78 428.78-23.56 427.72-23.34 426.66-22.89 425.59-22.44 424.5-21.77 423.4-21.09 422.13-20.19L422.13-20.19 422.13-3.34Q422.13-2.56 422.25-2.09 422.37-1.61 422.76-1.29 423.15-0.98 423.86-0.73 424.57-0.49 425.72-0.2L425.72-0.2 425.52 0.39Q424.11 0.2 423.12 0.1 422.13 0 421.13 0 420.13 0 418.27 0.39L418.27 0.39 418.12 0.15Q418.61-0.56 418.61-2.44L418.61-2.44 418.61-31.69Q418.61-33.33 418.45-34.42 418.29-35.52 417.89-36.18 417.49-36.84 416.78-37.11 416.07-37.38 415.28-37.38 414.49-37.38 414.32-37.35L414.32-37.35 414.22-37.79Q418.2-38.99 421.62-38.99L421.62-38.99Q422.13-37.7 422.13-36.21L422.13-36.21 422.13-21.9Q423.81-23.05 425.19-23.79 426.57-24.54 427.78-24.98 428.99-25.42 430.07-25.59 431.16-25.76 432.28-25.76L432.28-25.76Q433.82-25.76 435.1-25.35 436.39-24.95 437.31-24.04 438.24-23.12 438.8-21.63 439.36-20.14 439.46-17.94L439.46-17.94 439.46-2.76Q439.46-2.17 439.74-1.78 440.02-1.39 440.48-1.12 440.93-0.85 441.51-0.67 442.1-0.49 442.73-0.29L442.73-0.29 442.51 0.29Q441.15 0 439.32 0 437.48 0 435.63 0.39L435.63 0.39 435.48 0.15Q435.97-0.56 435.97-2.44L435.97-2.44ZM450.62-2.44L450.62-18.09Q450.62-21.56 449.8-22.74 448.98-23.93 446.32-23.75L446.32-23.75 446.22-24.19Q450.25-25.39 453.62-25.39L453.62-25.39Q454.13-24.12 454.13-22.61L454.13-22.61 454.13-4.39Q454.13-2.47 455.04-1.54 455.94-0.61 458.23-0.2L458.23-0.2 458.04 0.39Q455.23 0 453.71 0 452.18 0 450.27 0.39L450.27 0.39 450.13 0.15Q450.62-0.56 450.62-2.44L450.62-2.44ZM448.13-34.45L448.13-34.45Q450.45-35.79 453.38-36.69L453.38-36.69Q453.38-34.67 454.03-32.69L454.03-32.69 453.72-32.25Q451.4-32.1 448.88-30.96L448.88-30.96Q448.27-32.64 448.13-34.45ZM468.88-22.61L468.88-6.74Q468.88-3.42 469.61-2.16 470.34-0.9 471.98-0.9L471.98-0.9Q473.76-0.9 476.32-2.25L476.32-2.25 477.08-1.2Q473.05 1 470.49 1L470.49 1Q469.12 1 468.27 0.76 467.41 0.51 466.7-0.2 466-0.9 465.69-2.28 465.38-3.66 465.38-5.86L465.38-5.86 465.38-22.41 461.72-22.19 461.72-23.75Q463.65-24.17 465.38-24.29L465.38-24.29 465.38-27.76Q467.46-28.93 468.78-31.1L468.78-31.1 469.54-30.81Q469.12-29.83 469-28.6 468.88-27.37 468.88-24.44L468.88-24.44 477.27-24.44 477.27-23.58Q476.25-23.17 475.2-22.89 474.15-22.61 473.03-22.61L473.03-22.61 468.88-22.61ZM481.01-11.89L481.01-11.89Q481.01-14.48 481.86-16.91 482.72-19.34 484.3-21.23 485.89-23.12 488.15-24.26 490.41-25.39 493.21-25.39L493.21-25.39Q494.97-25.39 496.53-24.79 498.1-24.19 499.26-22.94 500.42-21.68 501.09-19.71 501.76-17.75 501.76-15.04L501.76-15.04 500.81-14.16 484.86-14.16Q484.82-13.75 484.82-13.35 484.82-12.96 484.82-12.57L484.82-12.57Q484.82-9.91 485.44-7.74 486.06-5.57 487.12-4.02 488.18-2.47 489.63-1.61 491.07-0.76 492.68-0.76L492.68-0.76Q493.7-0.76 494.76-0.92 495.83-1.07 496.84-1.42 497.85-1.76 498.81-2.29 499.76-2.83 500.56-3.59L500.56-3.59 501.56-2.54Q499.64-0.63 497.36 0.18 495.09 1 492.12 1L492.12 1Q489.77 1 487.73 0.1 485.69-0.81 484.21-2.49 482.72-4.17 481.86-6.56 481.01-8.94 481.01-11.89ZM492.68-23.71L492.68-23.71Q488.89-23.71 487.14-21.74 485.38-19.78 485.01-16.09L485.01-16.09 498.61-16.09Q498.41-20.09 496.82-21.9 495.22-23.71 492.68-23.71ZM518.31 1L518.31 1Q515.75 1 513.55-0.02 511.35-1.05 509.89-2.77 508.42-4.49 507.59-6.7 506.76-8.91 506.76-11.3L506.76-11.3Q506.76-14.72 507.76-17.43 508.76-20.14 510.55-21.86 512.33-23.58 514.71-24.49 517.09-25.39 519.92-25.39L519.92-25.39Q523.05-25.39 526.37-24.24L526.37-24.24 524.78-18.26 523.88-18.51Q524.14-21.07 523.73-22.9L523.73-22.9Q520.99-23.71 518.77-23.71L518.77-23.71Q514.48-23.71 512.52-20.91 510.57-18.12 510.57-12.65L510.57-12.65Q510.57-7.54 512.95-4.15 515.33-0.76 518.97-0.76L518.97-0.76Q523.49-0.76 526.32-3.59L526.32-3.59 527.32-2.54Q525.49-0.63 523.33 0.18 521.17 1 518.31 1ZM537.81-22.61L537.81-6.74Q537.81-3.42 538.55-2.16 539.28-0.9 540.91-0.9L540.91-0.9Q542.7-0.9 545.26-2.25L545.26-2.25 546.02-1.2Q541.99 1 539.43 1L539.43 1Q538.06 1 537.2 0.76 536.35 0.51 535.64-0.2 534.93-0.9 534.63-2.28 534.32-3.66 534.32-5.86L534.32-5.86 534.32-22.41 530.66-22.19 530.66-23.75Q532.59-24.17 534.32-24.29L534.32-24.29 534.32-27.76Q536.4-28.93 537.72-31.1L537.72-31.1 538.47-30.81Q538.06-29.83 537.94-28.6 537.81-27.37 537.81-24.44L537.81-24.44 546.21-24.44 546.21-23.58Q545.19-23.17 544.14-22.89 543.09-22.61 541.96-22.61L541.96-22.61 537.81-22.61ZM572.8-22.19L572.8-6.81Q572.8-5.18 572.96-4.09 573.11-3 573.52-2.34 573.92-1.68 574.63-1.4 575.34-1.12 576.12-1.12 576.9-1.12 577.09-1.15L577.09-1.15 577.22-0.71Q573.19 0.49 569.79 0.49L569.79 0.49Q569.31-0.83 569.31-2.29L569.31-2.29 569.31-3.44Q568.01-2.29 566.9-1.46 565.79-0.63 564.72-0.09 563.64 0.46 562.52 0.73 561.4 1 560.1 1L560.1 1Q558.64 1 557.18 0.66 555.73 0.32 554.56-0.56 553.39-1.44 552.67-2.95 551.95-4.47 551.95-6.81L551.95-6.81 551.95-21.9Q551.95-22.88 551.13-23.39 550.31-23.9 548.7-24.34L548.7-24.34 548.9-24.95Q550.31-24.66 552.56-24.66L552.56-24.66Q553.95-24.66 555.8-25.05L555.8-25.05 555.95-24.8Q555.46-24.05 555.46-22.19L555.46-22.19 555.46-7.69Q555.46-5.66 555.93-4.36 556.39-3.05 557.17-2.29 557.95-1.54 559-1.26 560.05-0.98 561.22-0.98L561.22-0.98Q562.32-0.98 563.26-1.21 564.2-1.44 565.15-1.94 566.11-2.44 567.11-3.23 568.11-4.03 569.31-5.15L569.31-5.15 569.31-21.29Q569.31-22.05 569.17-22.52 569.04-23 568.66-23.33 568.28-23.66 567.57-23.9 566.86-24.15 565.72-24.44L565.72-24.44 565.91-25.05Q567.3-24.85 568.3-24.76 569.31-24.66 569.92-24.66L569.92-24.66Q571.31-24.66 573.16-25.05L573.16-25.05 573.31-24.8Q572.8-24.07 572.8-22.19L572.8-22.19ZM585.1-2.44L585.1-18.09Q585.1-19.73 584.94-20.83 584.78-21.92 584.38-22.58 583.98-23.24 583.27-23.51 582.56-23.78 580.8-23.75L580.8-23.75 580.7-24.19Q584.68-25.39 588.1-25.39L588.1-25.39Q588.61-24.1 588.61-22.61L588.61-22.61 588.61-19.6 588.71-19.51Q589.74-20.92 590.68-22.02 591.62-23.12 592.59-23.85 593.57-24.58 594.64-24.96 595.72-25.34 597.04-25.34L597.04-25.34Q597.87-25.34 598.87-25.2L598.87-25.2 597.45-19.24 596.55-19.51Q596.55-19.87 596.5-20.51 596.45-21.14 596.37-21.77 596.28-22.39 596.15-22.84 596.01-23.29 595.84-23.29L595.84-23.29Q595.13-23.29 594.41-22.99 593.69-22.68 592.84-22 591.98-21.31 590.96-20.21 589.93-19.12 588.61-17.55L588.61-17.55 588.61-3.34Q588.61-2.56 588.74-2.09 588.86-1.61 589.25-1.29 589.64-0.98 590.35-0.73 591.06-0.49 592.2-0.2L592.2-0.2 592.01 0.39Q590.59 0.2 589.6 0.1 588.61 0 588 0L588 0Q586.61 0 584.76 0.39L584.76 0.39 584.61 0.15Q585.1-0.56 585.1-2.44L585.1-2.44ZM620.86-17.65L620.86-2.76Q620.86-2.34 621.05-1.99 621.23-1.64 621.49-1.4 621.74-1.17 622.23-0.95 622.72-0.73 623.08-0.61 623.45-0.49 624.11-0.29L624.11-0.29 623.91 0.29Q622.35 0 620.81 0L620.81 0Q618.89 0 617.01 0.39L617.01 0.39 616.86 0.15Q617.37-0.56 617.37-2.44L617.37-2.44 617.37-4.05Q616.15-1.78 613.58-0.39 611 1 608.36 1L608.36 1Q605.56 1 603.83-0.45 602.11-1.9 602.11-4.76L602.11-4.76Q602.11-6.62 602.88-8.07 603.65-9.52 604.93-10.53 606.21-11.55 608.23-12.33 610.24-13.11 612.38-13.6 614.52-14.09 617.37-14.5L617.37-14.5 617.37-16.75Q617.37-23.46 612.07-23.46L612.07-23.46Q610.36-23.46 607.89-22.62 605.41-21.78 603.72-20.41L603.72-20.41 602.72-21.56Q604.85-23.24 607.76-24.34 610.68-25.44 613.22-25.44L613.22-25.44Q614.34-25.44 615.36-25.23 616.37-25.02 617.41-24.48 618.45-23.93 619.19-23.08 619.94-22.24 620.4-20.84 620.86-19.43 620.86-17.65L620.86-17.65ZM609.51-0.85L609.51-0.85Q611.63-0.85 613.95-2.26 616.27-3.66 617.37-5.76L617.37-5.76 617.37-13.21Q611.12-12.3 608.45-10.44 605.77-8.57 605.77-5L605.77-5Q605.77-2.83 606.7-1.84 607.63-0.85 609.51-0.85ZM635.51-36.21L635.51-4.39Q635.51-2.47 636.41-1.54 637.32-0.61 639.61-0.2L639.61-0.2 639.42 0.39Q636.61 0 635.08 0 633.56 0 631.65 0.39L631.65 0.39 631.5 0.15Q631.99-0.56 631.99-2.44L631.99-2.44 631.99-31.69Q631.99-35.16 631.18-36.34 630.36-37.52 627.7-37.35L627.7-37.35 627.6-37.79Q631.63-38.99 635-38.99L635-38.99Q635.51-37.72 635.51-36.21L635.51-36.21ZM658.77 12.6L658.77 12.6Q658.55 12.72 657.83 12.82 657.11 12.92 655.99 12.92 654.86 12.92 653.33 12.52 651.79 12.13 650.32 11.35L650.32 11.35Q651.25 9.69 653.37 8.2L653.37 8.2 653.72 8.45Q655.74 11.69 658.38 11.01L658.38 11.01Q659.06 9.79 659.32 7.13 659.58 4.47 659.58-2.2L659.58-2.2 659.58-18.09Q659.58-21.53 658.75-22.73 657.92-23.93 655.28-23.75L655.28-23.75 655.18-24.19Q659.21-25.39 662.58-25.39L662.58-25.39Q663.07-24.1 663.07-22.61L663.07-22.61 663.07 2.44Q663.07 4.71 662.51 6.7 661.94 8.69 661.14 9.89 660.33 11.08 659.73 11.73 659.14 12.38 658.77 12.6ZM657.09-34.45L657.09-34.45Q659.33-35.77 662.33-36.69L662.33-36.69Q662.33-34.74 662.97-32.69L662.97-32.69 662.68-32.25Q660.38-32.1 657.82-30.96L657.82-30.96Q657.23-32.69 657.09-34.45ZM681.72-25.39L681.72-25.39Q687.33-25.39 690.53-21.95 693.73-18.51 693.73-12.35L693.73-12.35Q693.73-8.79 692.09-5.71 690.46-2.64 687.65-0.82 684.84 1 681.57 1L681.57 1Q675.93 1 672.74-2.4 669.56-5.81 669.56-12.06L669.56-12.06Q669.56-15.77 671.19-18.84 672.83-21.9 675.63-23.65 678.42-25.39 681.72-25.39ZM681.23-23.71L681.23-23.71Q679.3-23.71 677.88-23.14 676.47-22.58 675.61-21.63 674.76-20.68 674.25-19.21 673.73-17.75 673.55-16.21 673.37-14.67 673.37-12.65L673.37-12.65Q673.37-9.42 674.14-7.02 674.91-4.61 676.2-3.28 677.49-1.95 678.96-1.33 680.42-0.71 682.06-0.71L682.06-0.71Q683.96-0.71 685.39-1.31 686.82-1.9 687.67-2.87 688.53-3.83 689.04-5.31 689.55-6.79 689.74-8.3 689.92-9.81 689.92-11.74L689.92-11.74Q689.92-14.45 689.41-16.58 688.89-18.7 688.05-20.02 687.21-21.34 686.05-22.19 684.89-23.05 683.72-23.38 682.55-23.71 681.23-23.71ZM721.56-22.19L721.56-6.81Q721.56-5.18 721.72-4.09 721.88-3 722.28-2.34 722.68-1.68 723.39-1.4 724.1-1.12 724.88-1.12 725.66-1.12 725.86-1.15L725.86-1.15 725.98-0.71Q721.95 0.49 718.56 0.49L718.56 0.49Q718.07-0.83 718.07-2.29L718.07-2.29 718.07-3.44Q716.77-2.29 715.66-1.46 714.55-0.63 713.48-0.09 712.4 0.46 711.28 0.73 710.16 1 708.86 1L708.86 1Q707.4 1 705.95 0.66 704.49 0.32 703.32-0.56 702.15-1.44 701.43-2.95 700.71-4.47 700.71-6.81L700.71-6.81 700.71-21.9Q700.71-22.88 699.89-23.39 699.07-23.9 697.46-24.34L697.46-24.34 697.66-24.95Q699.07-24.66 701.32-24.66L701.32-24.66Q702.71-24.66 704.57-25.05L704.57-25.05 704.71-24.8Q704.22-24.05 704.22-22.19L704.22-22.19 704.22-7.69Q704.22-5.66 704.69-4.36 705.15-3.05 705.93-2.29 706.71-1.54 707.76-1.26 708.81-0.98 709.99-0.98L709.99-0.98Q711.08-0.98 712.02-1.21 712.96-1.44 713.92-1.94 714.87-2.44 715.87-3.23 716.87-4.03 718.07-5.15L718.07-5.15 718.07-21.29Q718.07-22.05 717.93-22.52 717.8-23 717.42-23.33 717.04-23.66 716.33-23.9 715.63-24.15 714.48-24.44L714.48-24.44 714.67-25.05Q716.07-24.85 717.07-24.76 718.07-24.66 718.68-24.66L718.68-24.66Q720.07-24.66 721.92-25.05L721.92-25.05 722.07-24.8Q721.56-24.07 721.56-22.19L721.56-22.19ZM733.86-2.44L733.86-18.09Q733.86-19.73 733.7-20.83 733.54-21.92 733.14-22.58 732.74-23.24 732.03-23.51 731.32-23.78 729.56-23.75L729.56-23.75 729.47-24.19Q733.45-25.39 736.86-25.39L736.86-25.39Q737.38-24.1 737.38-22.61L737.38-22.61 737.38-19.6 737.47-19.51Q738.5-20.92 739.44-22.02 740.38-23.12 741.36-23.85 742.33-24.58 743.41-24.96 744.48-25.34 745.8-25.34L745.8-25.34Q746.63-25.34 747.63-25.2L747.63-25.2 746.21-19.24 745.31-19.51Q745.31-19.87 745.26-20.51 745.21-21.14 745.13-21.77 745.04-22.39 744.91-22.84 744.77-23.29 744.6-23.29L744.6-23.29Q743.89-23.29 743.17-22.99 742.45-22.68 741.6-22 740.75-21.31 739.72-20.21 738.69-19.12 737.38-17.55L737.38-17.55 737.38-3.34Q737.38-2.56 737.5-2.09 737.62-1.61 738.01-1.29 738.4-0.98 739.11-0.73 739.82-0.49 740.97-0.2L740.97-0.2 740.77 0.39Q739.35 0.2 738.36 0.1 737.38 0 736.77 0L736.77 0Q735.37 0 733.52 0.39L733.52 0.39 733.37 0.15Q733.86-0.56 733.86-2.44L733.86-2.44ZM754.27-2.44L754.27-18.09Q754.27-19.73 754.11-20.83 753.95-21.92 753.55-22.58 753.15-23.24 752.44-23.51 751.73-23.78 750.94-23.78 750.14-23.78 749.97-23.75L749.97-23.75 749.87-24.19Q753.85-25.39 757.27-25.39L757.27-25.39Q757.78-24.1 757.78-22.61L757.78-22.61 757.78-21.9Q759.2-22.85 760.4-23.56 761.59-24.27 762.75-24.76 763.91-25.24 765.13-25.49 766.35-25.73 767.82-25.73L767.82-25.73Q769.14-25.73 770.44-25.39 771.75-25.05 772.79-24.17 773.82-23.29 774.47-21.78 775.12-20.26 775.12-17.94L775.12-17.94 775.12-2.76Q775.12-2.17 775.4-1.78 775.68-1.39 776.13-1.12 776.58-0.85 777.17-0.67 777.75-0.49 778.39-0.29L778.39-0.29 778.17 0.29Q776.8 0 774.53 0L774.53 0Q773.14 0 771.28 0.39L771.28 0.39 771.14 0.15Q771.63-0.56 771.63-2.44L771.63-2.44 771.63-17.04Q771.63-19.09 771.24-20.4 770.85-21.7 770.17-22.45 769.5-23.19 768.61-23.49 767.72-23.78 766.72-23.78L766.72-23.78Q765.5-23.78 764.44-23.56 763.37-23.34 762.31-22.89 761.25-22.44 760.15-21.77 759.05-21.09 757.78-20.19L757.78-20.19 757.78-3.34Q757.78-2.56 757.91-2.09 758.03-1.61 758.42-1.29 758.81-0.98 759.52-0.73 760.23-0.49 761.37-0.2L761.37-0.2 761.18 0.39Q759.76 0.2 758.77 0.1 757.78 0 757.17 0L757.17 0Q755.78 0 753.93 0.39L753.93 0.39 753.78 0.15Q754.27-0.56 754.27-2.44L754.27-2.44ZM783.12-11.89L783.12-11.89Q783.12-14.48 783.98-16.91 784.83-19.34 786.42-21.23 788.01-23.12 790.26-24.26 792.52-25.39 795.33-25.39L795.33-25.39Q797.09-25.39 798.65-24.79 800.21-24.19 801.37-22.94 802.53-21.68 803.2-19.71 803.88-17.75 803.88-15.04L803.88-15.04 802.92-14.16 786.98-14.16Q786.93-13.75 786.93-13.35 786.93-12.96 786.93-12.57L786.93-12.57Q786.93-9.91 787.55-7.74 788.18-5.57 789.24-4.02 790.3-2.47 791.74-1.61 793.18-0.76 794.79-0.76L794.79-0.76Q795.82-0.76 796.88-0.92 797.94-1.07 798.96-1.42 799.97-1.76 800.92-2.29 801.87-2.83 802.68-3.59L802.68-3.59 803.68-2.54Q801.75-0.63 799.48 0.18 797.21 1 794.23 1L794.23 1Q791.89 1 789.85 0.1 787.81-0.81 786.32-2.49 784.83-4.17 783.98-6.56 783.12-8.94 783.12-11.89ZM794.79-23.71L794.79-23.71Q791.01-23.71 789.25-21.74 787.49-19.78 787.13-16.09L787.13-16.09 800.73-16.09Q800.53-20.09 798.93-21.9 797.33-23.71 794.79-23.71ZM831.39-25.15L831.68-24.66 821.28 2.29Q820.62 4.03 820.14 5.15 819.67 6.27 819.03 7.48 818.4 8.69 817.8 9.45 817.2 10.21 816.41 10.83 815.62 11.45 814.69 11.79L814.69 11.79Q810.81 11.94 807.88 9.16L807.88 9.16Q809.19 7.54 811.54 6.4L811.54 6.4 811.83 6.69Q812.81 8.96 814.98 9.96L814.98 9.96Q816.03 9.11 817.14 7.14 818.25 5.18 819.89 0.76L819.89 0.76 811.2-19.8Q810.51-21.53 809.67-22.29 808.83-23.05 807.94-23.02 807.05-23 805.9-22.85L805.9-22.85 805.63-23.34Q809.73-25.39 812.83-25.39L812.83-25.39 820.18-7.5Q820.67-6.32 821.33-3L821.33-3 821.74-3Q822.92-6.88 822.94-6.96L822.94-6.96 828.38-22.56Q828.7-23.44 827.65-23.82 826.6-24.19 824.48-24L824.48-24 824.33-24.61Q826.41-25.02 831.39-25.15L831.39-25.15ZM886.17-24.61L875.25 1.25 873.57 0.76 867.66-18.65 859.97 1.25 858.26 0.76 851.01-19.8Q850.62-21.07 850.08-21.8 849.55-22.53 848.95-22.75 848.35-22.97 847.63-23.01 846.91-23.05 845.71-22.85L845.71-22.85 845.47-23.34Q849.57-25.39 852.72-25.39L852.72-25.39 858.87-8.3Q859.39-6.57 859.97-3.81L859.97-3.81 860.36-3.81Q861.27-6.79 861.66-7.74L861.66-7.74 866.81-21.04Q866.51-21.85 866-22.27 865.49-22.68 865.1-22.88L865.1-22.88Q864.88-23 864.45-23.03 864.02-23.07 863.57-23.06 863.12-23.05 862.69-22.99 862.27-22.92 862.02-22.85L862.02-22.85 861.75-23.34Q865.85-25.39 868.96-25.39L868.96-25.39 874.3-8.4Q874.89-6.52 875.4-3.91L875.4-3.91 875.82-3.91Q876.57-6.4 877.11-7.86L877.11-7.86 882.87-22.29Q883.12-22.88 882.75-23.24 882.38-23.61 881.46-23.74 880.53-23.88 879.16-23.75L879.16-23.75 879.01-24.34Q882.14-25.02 885.87-25.1L885.87-25.1 886.17-24.61ZM892.61-2.44L892.61-18.09Q892.61-21.56 891.79-22.74 890.97-23.93 888.31-23.75L888.31-23.75 888.22-24.19Q892.24-25.39 895.61-25.39L895.61-25.39Q896.13-24.12 896.13-22.61L896.13-22.61 896.13-4.39Q896.13-2.47 897.03-1.54 897.93-0.61 900.23-0.2L900.23-0.2 900.03 0.39Q897.22 0 895.7 0 894.17 0 892.27 0.39L892.27 0.39 892.12 0.15Q892.61-0.56 892.61-2.44L892.61-2.44ZM890.12-34.45L890.12-34.45Q892.44-35.79 895.37-36.69L895.37-36.69Q895.37-34.67 896.03-32.69L896.03-32.69 895.71-32.25Q893.39-32.1 890.88-30.96L890.88-30.96Q890.27-32.64 890.12-34.45ZM910.87-22.61L910.87-6.74Q910.87-3.42 911.6-2.16 912.33-0.9 913.97-0.9L913.97-0.9Q915.75-0.9 918.32-2.25L918.32-2.25 919.07-1.2Q915.04 1 912.48 1L912.48 1Q911.11 1 910.26 0.76 909.4 0.51 908.7-0.2 907.99-0.9 907.68-2.28 907.38-3.66 907.38-5.86L907.38-5.86 907.38-22.41 903.72-22.19 903.72-23.75Q905.64-24.17 907.38-24.29L907.38-24.29 907.38-27.76Q909.45-28.93 910.77-31.1L910.77-31.1 911.53-30.81Q911.11-29.83 910.99-28.6 910.87-27.37 910.87-24.44L910.87-24.44 919.27-24.44 919.27-23.58Q918.24-23.17 917.19-22.89 916.14-22.61 915.02-22.61L915.02-22.61 910.87-22.61ZM943.51-2.44L943.51-17.04Q943.51-19.09 943.12-20.4 942.73-21.7 942.06-22.45 941.38-23.19 940.49-23.49 939.6-23.78 938.6-23.78L938.6-23.78Q937.38-23.78 936.32-23.56 935.26-23.34 934.19-22.89 933.13-22.44 932.03-21.77 930.94-21.09 929.67-20.19L929.67-20.19 929.67-3.34Q929.67-2.56 929.79-2.09 929.91-1.61 930.3-1.29 930.69-0.98 931.4-0.73 932.11-0.49 933.25-0.2L933.25-0.2 933.06 0.39Q931.64 0.2 930.65 0.1 929.67 0 928.66 0 927.66 0 925.81 0.39L925.81 0.39 925.66 0.15Q926.15-0.56 926.15-2.44L926.15-2.44 926.15-31.69Q926.15-33.33 925.99-34.42 925.83-35.52 925.43-36.18 925.03-36.84 924.32-37.11 923.61-37.38 922.82-37.38 922.02-37.38 921.85-37.35L921.85-37.35 921.76-37.79Q925.74-38.99 929.15-38.99L929.15-38.99Q929.67-37.7 929.67-36.21L929.67-36.21 929.67-21.9Q931.35-23.05 932.73-23.79 934.11-24.54 935.32-24.98 936.53-25.42 937.61-25.59 938.7-25.76 939.82-25.76L939.82-25.76Q941.36-25.76 942.64-25.35 943.92-24.95 944.85-24.04 945.78-23.12 946.34-21.63 946.9-20.14 947-17.94L947-17.94 947-2.76Q947-2.17 947.28-1.78 947.56-1.39 948.01-1.12 948.46-0.85 949.05-0.67 949.64-0.49 950.27-0.29L950.27-0.29 950.05 0.29Q948.68 0 946.85 0 945.02 0 943.17 0.39L943.17 0.39 943.02 0.15Q943.51-0.56 943.51-2.44L943.51-2.44ZM990.84-22.19L990.84-6.81Q990.84-5.18 991-4.09 991.16-3 991.56-2.34 991.97-1.68 992.67-1.4 993.38-1.12 994.16-1.12 994.94-1.12 995.14-1.15L995.14-1.15 995.26-0.71Q991.23 0.49 987.84 0.49L987.84 0.49Q987.35-0.83 987.35-2.29L987.35-2.29 987.35-3.44Q986.06-2.29 984.95-1.46 983.84-0.63 982.76-0.09 981.69 0.46 980.56 0.73 979.44 1 978.15 1L978.15 1Q976.68 1 975.23 0.66 973.78 0.32 972.61-0.56 971.43-1.44 970.71-2.95 969.99-4.47 969.99-6.81L969.99-6.81 969.99-21.9Q969.99-22.88 969.17-23.39 968.36-23.9 966.75-24.34L966.75-24.34 966.94-24.95Q968.36-24.66 970.6-24.66L970.6-24.66Q971.99-24.66 973.85-25.05L973.85-25.05 974-24.8Q973.51-24.05 973.51-22.19L973.51-22.19 973.51-7.69Q973.51-5.66 973.97-4.36 974.44-3.05 975.22-2.29 976-1.54 977.05-1.26 978.1-0.98 979.27-0.98L979.27-0.98Q980.37-0.98 981.31-1.21 982.25-1.44 983.2-1.94 984.15-2.44 985.15-3.23 986.15-4.03 987.35-5.15L987.35-5.15 987.35-21.29Q987.35-22.05 987.22-22.52 987.08-23 986.7-23.33 986.33-23.66 985.62-23.9 984.91-24.15 983.76-24.44L983.76-24.44 983.96-25.05Q985.35-24.85 986.35-24.76 987.35-24.66 987.96-24.66L987.96-24.66Q989.35-24.66 991.21-25.05L991.21-25.05 991.36-24.8Q990.84-24.07 990.84-22.19L990.84-22.19ZM1016.82-5.69L1016.82-5.69Q1016.82-3.93 1016.11-2.66 1015.4-1.39 1014.22-0.57 1013.03 0.24 1011.46 0.62 1009.88 1 1008.15 1L1008.15 1Q1003.95 1 1000.26-0.76L1000.26-0.76Q1000.73-2.37 1001.19-3.75 1001.66-5.13 1002.14-6.3L1002.14-6.3 1002.85-6.05Q1002.63-4.98 1002.63-3.99 1002.63-3 1002.71-2.2L1002.71-2.2Q1003.46-1.81 1004.12-1.53 1004.78-1.25 1005.44-1.06 1006.1-0.88 1006.86-0.79 1007.61-0.71 1008.61-0.71L1008.61-0.71Q1010.1-0.71 1011.08-0.9 1012.06-1.1 1012.61-1.57 1013.15-2.05 1013.37-2.84 1013.59-3.64 1013.59-4.81L1013.59-4.81Q1013.59-5.71 1013.29-6.51 1012.98-7.3 1012.24-8.08 1011.49-8.86 1010.26-9.7 1009.03-10.55 1007.2-11.55L1007.2-11.55Q1004.24-13.31 1002.73-15.05 1001.22-16.8 1001.22-18.8L1001.22-18.8Q1001.22-20.39 1001.88-21.62 1002.53-22.85 1003.67-23.69 1004.8-24.54 1006.32-24.96 1007.83-25.39 1009.52-25.39L1009.52-25.39Q1010.37-25.39 1011.31-25.27 1012.25-25.15 1013.13-24.91 1014.01-24.68 1014.78-24.35 1015.55-24.02 1016.11-23.61L1016.11-23.61Q1015.33-20.41 1014.2-17.99L1014.2-17.99 1013.5-18.26Q1013.54-18.97 1013.57-20.01 1013.59-21.04 1013.59-22.46L1013.59-22.46Q1012.01-23.71 1009.2-23.71L1009.2-23.71Q1007.81-23.71 1006.84-23.54 1005.88-23.36 1005.29-22.95 1004.71-22.53 1004.45-21.81 1004.19-21.09 1004.19-20L1004.19-20Q1004.19-19.19 1004.41-18.49 1004.63-17.8 1005.2-17.13 1005.76-16.46 1006.72-15.76 1007.69-15.06 1009.2-14.26L1009.2-14.26Q1011.57-12.96 1013.04-11.99 1014.52-11.01 1015.36-10.07 1016.21-9.13 1016.51-8.11 1016.82-7.08 1016.82-5.69Z" opacity="1" transform="matrix(1,0,0,1,0,0)" fill="#ffffff" class="slogan-text-1" data-fill-palette-color="secondary" id="text-1"></path></svg></g></svg></g></svg></g></svg></g><g><svg viewBox="0 0 221.86786555247568 221.86786555247568" height="221.86786555247568" width="221.86786555247568"><g><svg></svg></g><g id="icon-0"><svg viewBox="0 0 221.86786555247568 221.86786555247568" height="221.86786555247568" width="221.86786555247568"><g><path d="M0 110.934c0-61.267 49.667-110.934 110.934-110.934 61.267 0 110.934 49.667 110.934 110.934 0 61.267-49.667 110.934-110.934 110.934-61.267 0-110.934-49.667-110.934-110.934zM110.934 213.069c56.408 0 102.135-45.727 102.135-102.135 0-56.408-45.727-102.135-102.135-102.135-56.408 0-102.135 45.727-102.135 102.135 0 56.408 45.727 102.135 102.135 102.135z" data-fill-palette-color="accent" fill="#ffffff" stroke="transparent"></path><ellipse rx="109.82459344847545" ry="109.82459344847545" cx="110.93393277623784" cy="110.93393277623784" fill="#ffffff" stroke="transparent" stroke-width="0" fill-opacity="1" data-fill-palette-color="accent"></ellipse></g><g transform="matrix(1,0,0,1,51.75094383578437,54.697488139535466)"><svg viewBox="0 0 118.36597788090694 112.47288927340475" height="112.47288927340475" width="118.36597788090694"><g><svg xmlns="http://www.w3.org/2000/svg" data-name="Layer 1" viewBox="0 0 128.00062704264016 121.62785802165448" x="0" y="0" width="118.36597788090694" height="112.47288927340475" class="icon-cg-0" data-fill-palette-color="quaternary" id="cg-0"><path d="M73.549 85.157A2.001 2.001 0 0 0 72.017 82.779c-1.257-0.271-2.093-0.383-2.128-0.387a2 2 0 0 0-0.522 3.965c0.007 0.001 0.722 0.098 1.804 0.332a2.04 2.04 0 0 0 0.425 0.045A2.001 2.001 0 0 0 73.549 85.157Z" fill="#000000" data-fill-palette-color="quaternary"></path><path d="M83.793 97.519a1.998 1.998 0 0 0-2.704 0.831 19.943 19.943 0 0 1-2.273 3.31 2 2 0 1 0 3.081 2.551 23.924 23.924 0 0 0 2.727-3.988A2.001 2.001 0 0 0 83.793 97.519Z" fill="#000000" data-fill-palette-color="quaternary"></path><path d="M68.92 113.033a2 2 0 0 0 2.799 0.408c1.276-0.952 2.477-1.893 3.568-2.795a2 2 0 0 0-2.551-3.082c-1.039 0.86-2.187 1.759-3.408 2.67A2 2 0 0 0 68.92 113.033Z" fill="#000000" data-fill-palette-color="quaternary"></path><path d="M84.723 89.785a12.489 12.489 0 0 0-3.81-3.598 2 2 0 0 0-2.146 3.375 8.561 8.561 0 0 1 2.612 2.418 2 2 0 1 0 3.344-2.195Z" fill="#000000" data-fill-palette-color="quaternary"></path><path d="M61.502 119.958a1.989 1.989 0 0 0 1.061-0.306q0.873-0.548 1.708-1.083a2 2 0 0 0-2.161-3.367q-0.817 0.526-1.672 1.062A2 2 0 0 0 61.502 119.958Z" fill="#000000" data-fill-palette-color="quaternary"></path><path d="M64 0A64.064 64.064 0 0 0 0.06 61.78a2.105 2.105 0 0 1 0.093-0.231c-0.024 0.377-0.057 0.752-0.074 1.132C0.068 62.633 0.048 62.589 0.04 62.54 0.03 63.03 0 63.51 0 64c0 0.35 0.015 0.697 0.02 1.045C0.017 65.323 0 65.597 0 65.875a2.191 2.191 0 0 0 0.045 0.439A63.471 63.471 0 0 0 11.52 100.55L38.9 92.46a121.31 121.31 0 0 0 11.75-3.97S37.645 85.859 37.501 85.83a5.998 5.998 0 0 1-3.954-8.954A6.031 6.031 0 0 1 38.37 73.96c12.41-0.64 25.08-0.2 28.55 0a0.34 0.34 0 0 1 0.1 0.01 2.015 2.015 0 0 1-0.96-0.47L47.02 56.64 42.49 58.27a1.957 1.957 0 0 1-1.35 0l-4.89-1.75-4.89 1.75a1.958 1.958 0 0 1-1.35 0l-4.89-1.75-4.88 1.75a1.986 1.986 0 0 1-1.36 0l-5.55-2L4.198 63.06c0.079-1.798 0.243-3.573 0.47-5.329L30.33 38.65a1.99 1.99 0 0 1 2.52 0.1L59.14 62.03 84.47 42.98a1.998 1.998 0 0 1 2.33-0.06l31.53 21.51a2.005 2.005 0 0 1 0.53 2.78 2.027 2.027 0 0 1-1.66 0.87 1.926 1.926 0 0 1-1.12-0.35L101.24 57.61l-4 1.63a1.981 1.981 0 0 1-0.76 0.15 1.932 1.932 0 0 1-0.75-0.15l-4.15-1.69-4.14 1.69a2 2 0 0 1-1.52 0l-4.13-1.69-4.14 1.69a1.975 1.975 0 0 1-1.51 0l-4.3-1.76L62.2 64.74l6.51 5.76a2.007 2.007 0 0 1 0.17 2.83 1.972 1.972 0 0 1-1.39 0.66c19.01 1.16 42.46 4.88 55.17 15.55a63.223 63.223 0 0 0 5.278-23.171A2.173 2.173 0 0 0 128 65.875c0-0.324-0.019-0.642-0.024-0.965C127.98 64.606 128 64.305 128 64A64.072 64.072 0 0 0 64 0ZM78.98 19.3a3.409 3.409 0 0 1-1.05 2.71L70.01 27.33l2.03 12.73-6.61-9.85-7.77 4.47a4.059 4.059 0 0 1-1.74 4.12l-5.58-8.32a4.055 4.055 0 0 1 2.27-0.69 3.84 3.84 0 0 1 0.76 0.07 4.175 4.175 0 0 1 1.44 0.57l7.07-5.49L55.27 15.1l11.01 6.69 7.92-5.32a2.06 2.06 0 0 1 1.16-0.31 8.33 8.33 0 0 1 3.51 1.2A10.723 10.723 0 0 1 78.98 19.3Z" fill="#000000" data-fill-palette-color="quaternary"></path><path d="M57.59 89.56c-3.24 2-9.32 4.33-17.56 6.74l-25.95 7.67L1.43 107.71a2.014 2.014 0 0 0-1.098 3.011A2.047 2.047 0 0 0 2.57 111.54l38.59-11.4c3.842-1.127 7.686-2.275 11.405-3.769C56.041 94.975 60.544 93.261 62.95 90.27a5.384 5.384 0 0 0 0.91-1.54 7.27 7.27 0 0 1 1.96 1.69c2.135 2.562-1.475 5.727-3.296 7.207a54.826 54.826 0 0 1-7.027 4.484c-11.01 6.409-23.352 10.88-35.45 14.766q-0.349 0.112-0.697 0.223c-0.94 0.299-2.308 0.483-2.94 1.318A2.001 2.001 0 0 0 18.59 121.54c0.02 0 0.23-0.07 0.62-0.19 0.19-0.06 0.39-0.12 0.6-0.19a246.869 246.869 0 0 0 27.258-10.25A90.087 90.087 0 0 0 62.755 102.269c3.386-2.443 7.838-5.792 7.685-10.493-0.152-4.686-5.278-7.196-9.06-8.626a16.744 16.744 0 0 0-2.84-1.47c3.7 0.07 6.55 0.19 7.91 0.27 0.44 0.03 0.88 0.05 1.32 0.08 0.06 0 0.11 0.01 0.17 0.01 3.4 0.2 6.78 0.44 10.12 0.88 0.06 0.01 0.12 0.01 0.17 0.02a58.518 58.518 0 0 1 11.51 2.59c4.4 1.51 9.25 3.51 12.99 6.61a18.993 18.993 0 0 1 3.12 3.22 10.53 10.53 0 0 1 1.87 3.74c1.38 5.36-2.38 11.75-11.18 18.98a2.009 2.009 0 0 0-0.27 2.82 2.032 2.032 0 0 0 2.81 0.27c10.11-8.31 14.32-16.07 12.52-23.07a13.003 13.003 0 0 0-0.87-2.38 19.707 19.707 0 0 0-6.22-7.1c6.7 2.43 11.8 5.45 15.07 8.98 0.25 0.27 0.49 0.55 0.72 0.83a16.448 16.448 0 0 1 1.25 1.7c3.03 4.72 3.26 10.19 0.72 16.74-0.922 2.352 2.783 3.817 3.73 1.45 2.99-7.72 2.63-14.56-1.09-20.35-6.225-8.026-14.845-12.139-24.48-14.89C89.7 80.02 77.44 78.58 66.68 77.95c-3.4-0.2-15.83-0.62-28.02 0a2.11 2.11 0 0 0-1.945 1.733q-0.011 0.078-0.015 0.158c-0.063 1.131 0.744 1.718 1.67 2.089l14.88 3.01c1.42 0.33 2.7 0.66 3.86 1a1.995 1.995 0 0 1 0.48 3.62Z" fill="#000000" data-fill-palette-color="quaternary"></path><path d="M81.031 53.539a2.001 2.001 0 0 1 1.514 0l4.137 1.69 4.142-1.69a1.996 1.996 0 0 1 1.512 0L96.481 55.23l0.793-0.323L85.732 47.035l-10.171 7.65 1.334 0.544Z" fill="#000000" data-fill-palette-color="quaternary"></path><path d="M17.182 53.409l2.379 0.856 4.885-1.757a2.001 2.001 0 0 1 1.354 0l4.883 1.757 4.887-1.757a1.998 1.998 0 0 1 1.353 0l4.891 1.757 1.794-0.644L31.413 42.824Z" fill="#000000" data-fill-palette-color="quaternary"></path></svg></g></svg></g></svg></g></svg></g></svg></g></svg></g><defs></defs></svg><rect width="395.5199999999999" height="132.2670024134322" fill="none" stroke="none" visibility="hidden"></rect></g></svg></g></svg>